<svg width="91" height="91" viewBox="0 0 91 91" fill="none" xmlns="http://www.w3.org/2000/svg">
<path d="M45.3446 90.6889C37.0216 90.6889 29.4053 88.6474 22.4957 84.5644C15.586 80.56 10.0897 75.103 6.00678 68.1933C2.00233 61.2837 0.000108529 53.6674 0.000108529 45.3444C0.000108529 37.0215 2.00233 29.4052 6.00678 22.4955C10.0897 15.5859 15.586 10.1289 22.4957 6.12443C29.4053 2.04147 37.0216 -1.10865e-05 45.3446 -1.10865e-05C53.6675 -1.10865e-05 61.2838 2.04147 68.1934 6.12443C75.1031 10.1289 80.5601 15.5859 84.5646 22.4955C88.6475 29.4052 90.689 37.0215 90.689 45.3444C90.689 53.6674 88.6475 61.2837 84.5646 68.1933C80.5601 75.103 75.1031 80.56 68.1934 84.5644C61.2838 88.6474 53.6675 90.6889 45.3446 90.6889ZM45.3446 74.7889C50.7623 74.7889 55.552 73.5718 59.7134 71.1378C63.9534 68.7037 67.212 65.2489 69.489 60.7733C71.8446 56.2978 73.0223 51.1548 73.0223 45.3444C73.0223 39.6911 71.8446 34.6267 69.489 30.1511C67.212 25.6755 63.9534 22.1815 59.7134 19.6689C55.552 17.1563 50.7623 15.9 45.3446 15.9C39.9268 15.9 35.0586 17.1563 30.7401 19.6689C26.5001 22.1815 23.1631 25.6755 20.729 30.1511C18.2949 34.6267 17.0779 39.6911 17.0779 45.3444C17.0779 51.1548 18.2557 56.2978 20.6112 60.7733C23.0453 65.1704 26.4216 68.6252 30.7401 71.1378C35.0586 73.5718 39.9268 74.7889 45.3446 74.7889Z" fill="#4D61F5"/>
</svg>
